<svg width="61" height="62" viewBox="0 0 61 62" fill="none" xmlns="http://www.w3.org/2000/svg">
<path d="M6.1 50.5564C6.1 48.9023 4.73157 47.5563 3.05 47.5563C1.36843 47.5563 0 48.9023 0 50.5564C0 52.2104 1.36843 53.5564 3.05 53.5564C4.73157 53.5564 6.1 52.2104 6.1 50.5564ZM2.03333 50.5564C2.03333 50.0044 2.4888 49.5564 3.05 49.5564C3.6112 49.5564 4.06667 50.0044 4.06667 50.5564C4.06667 51.1084 3.6112 51.5564 3.05 51.5564C2.4888 51.5564 2.03333 51.1084 2.03333 50.5564ZM0 36.0006C0 37.6546 1.36843 39.0006 3.05 39.0006C4.73157 39.0006 6.1 37.6546 6.1 36.0006C6.1 34.3466 4.73157 33.0005 3.05 33.0005C1.36843 33.0005 0 34.3466 0 36.0006ZM3.05 35.0006C3.6112 35.0006 4.06667 35.4486 4.06667 36.0006C4.06667 36.5526 3.6112 37.0006 3.05 37.0006C2.4888 37.0006 2.03333 36.5526 2.03333 36.0006C2.03333 35.4486 2.4888 35.0006 3.05 35.0006ZM28.4667 44.0007C28.4667 44.5527 28.9221 45.0007 29.4833 45.0007H31.5167C33.1982 45.0007 34.5667 46.3467 34.5667 48.0008C34.5667 49.6548 33.1982 51.0008 31.5167 51.0008V53.0009H29.4833V51.0008C27.8018 51.0008 26.4333 49.6548 26.4333 48.0008H28.4667C28.4667 48.5528 28.9221 49.0008 29.4833 49.0008H31.5167C32.0779 49.0008 32.5333 48.5528 32.5333 48.0008C32.5333 47.4488 32.0779 47.0008 31.5167 47.0008H29.4833C27.8018 47.0008 26.4333 45.6547 26.4333 44.0007C26.4333 42.3467 27.8018 41.0007 29.4833 41.0007V39.0006H31.5167V41.0007C33.1982 41.0007 34.5667 42.3467 34.5667 44.0007H32.5333C32.5333 43.4487 32.0779 43.0007 31.5167 43.0007H29.4833C28.9221 43.0007 28.4667 43.4487 28.4667 44.0007ZM61 50.5564C61 52.2104 59.6316 53.5564 57.95 53.5564C56.2684 53.5564 54.9 52.2104 54.9 50.5564C54.9 48.9023 56.2684 47.5563 57.95 47.5563C59.6316 47.5563 61 48.9023 61 50.5564ZM58.9667 50.5564C58.9667 50.0044 58.5112 49.5564 57.95 49.5564C57.3888 49.5564 56.9333 50.0044 56.9333 50.5564C56.9333 51.1084 57.3888 51.5564 57.95 51.5564C58.5112 51.5564 58.9667 51.1084 58.9667 50.5564ZM57.95 33.0005C59.6316 33.0005 61 34.3466 61 36.0006C61 37.6546 59.6316 39.0006 57.95 39.0006C56.2684 39.0006 54.9 37.6546 54.9 36.0006C54.9 34.3466 56.2684 33.0005 57.95 33.0005ZM57.95 35.0006C57.3888 35.0006 56.9333 35.4486 56.9333 36.0006C56.9333 36.5526 57.3888 37.0006 57.95 37.0006C58.5112 37.0006 58.9667 36.5526 58.9667 36.0006C58.9667 35.4486 58.5112 35.0006 57.95 35.0006ZM52.8667 51.5564V49.5564H50.8333V44.5563H46.7667V46.5563H48.8V51.5564H52.8667ZM52.8667 37.0006V35.0006H48.8V40.0006H46.7667V42.0007H50.8333V37.0006H52.8667ZM8.13333 49.5564V51.5564H12.2V46.5563H14.2333V44.5563H10.1667V49.5564H8.13333ZM14.2333 40.0006H12.2V35.0006H8.13333V37.0006H10.1667V42.0007H14.2333V40.0006ZM26.4333 20.0003V19.5353L26.0999 19.3163C24.5922 18.3263 23.6263 16.7463 23.426 15.0002H22.3667C20.6851 15.0002 19.3167 13.6542 19.3167 12.0002C19.3167 11.2632 19.5993 10.5952 20.0497 10.0722C19.5739 9.11815 19.3167 8.07313 19.3167 7.00011C19.3167 3.14105 22.51 0 26.4333 0H34.5667C38.49 0 41.6833 3.14105 41.6833 7.00011C41.6833 8.07313 41.4261 9.11815 40.9513 10.0732C41.4017 10.5962 41.6833 11.2632 41.6833 12.0002C41.6833 13.6542 40.3149 15.0002 38.6333 15.0002H37.574C37.3737 16.7463 36.4079 18.3273 34.9001 19.3163L34.5667 19.5353V20.0003H49.8167C50.2701 20.0003 50.6849 20.1523 51.0235 20.3993L51.4291 20.0003C52.7396 18.7113 55.0271 18.7113 56.3376 20.0003H56.9333C58.6149 20.0003 59.9833 21.3463 59.9833 23.0004V25.0004C59.9833 26.6544 58.6149 28.0005 56.9333 28.0005H51.85H48.8H39.65V31.9995H41.4505L44.1091 41.1537C44.5239 42.5747 44.7333 44.0487 44.7333 45.5317C44.7333 50.5198 42.3106 55.2869 38.2531 58.2809L35.38 60.4C33.978 61.432 32.2446 62 30.5 62C28.7554 62 27.024 61.434 25.6251 60.404L22.7479 58.2809C18.6894 55.2869 16.2667 50.5208 16.2667 45.5317C16.2667 44.0487 16.4761 42.5747 16.8909 41.1517L19.5485 31.9995H21.35V28.0005H12.2H9.15H4.06667C2.3851 28.0005 1.01667 26.6544 1.01667 25.0004V23.0004C1.01667 21.3463 2.3851 20.0003 4.06667 20.0003H4.66243C5.97292 18.7113 8.26042 18.7113 9.5709 20.0003L9.97655 20.3993C10.3151 20.1523 10.7299 20.0003 11.1833 20.0003H26.4333ZM9.15 26.0004V22.4144L8.13333 21.4143C7.58942 20.8813 6.64392 20.8813 6.1 21.4143L5.50423 22.0004H4.06667C3.50547 22.0004 3.05 22.4484 3.05 23.0004V25.0004C3.05 25.5524 3.50547 26.0004 4.06667 26.0004H9.15ZM39.9184 33.9995H37.212C35.4186 33.9995 33.6832 33.4815 32.1917 32.5035L30.5 31.3935L28.8073 32.5035C27.3168 33.4825 25.5793 33.9995 23.7839 33.9995H21.0826L18.847 41.7017C18.484 42.9467 18.3 44.2347 18.3 45.5317C18.3 49.8938 20.4187 54.0619 23.9679 56.6809L26.8431 58.8029C28.9415 60.346 32.0565 60.348 34.161 58.7989L37.0321 56.6809C40.5813 54.0629 42.7 49.8948 42.7 45.5317C42.7 44.2347 42.516 42.9467 42.1551 41.7037L39.9184 33.9995ZM52.8667 21.4143L51.85 22.4144V26.0004H56.9333C57.4945 26.0004 57.95 25.5524 57.95 25.0004V23.0004C57.95 22.4484 57.4945 22.0004 56.9333 22.0004H55.4958L54.9 21.4143C54.3561 20.8813 53.4106 20.8813 52.8667 21.4143ZM49.8167 22.0004H37.2985H34.5667L30.5 25.4144L26.9298 22.0004H23.7016H11.1833V26.0004H12.2H23.3833V31.9995H23.7839C25.1767 31.9995 26.5238 31.5985 27.6788 30.8395L30.5 28.9885L33.3202 30.8395C34.4762 31.5985 35.8212 31.9995 37.211 31.9995H37.6167V26.0004H48.8H49.8167V22.0004ZM39.65 12.0002C39.65 11.4482 39.1945 11.0002 38.6333 11.0002H37.6167V11.6182V13.0002H38.6333C39.1945 13.0002 39.65 12.5522 39.65 12.0002ZM22.3667 13.0002H23.3833V11.0002H22.3667C21.8055 11.0002 21.35 11.4482 21.35 12.0002C21.35 12.5522 21.8055 13.0002 22.3667 13.0002ZM26.0155 6.4161C26.9905 6.0971 28.0346 6.1681 28.9547 6.62211L30.6078 7.43512C31.3591 7.80512 32.2009 8.00013 33.0417 8.00013C33.8855 8.00013 34.7293 8.14413 35.5254 8.41914L36.4709 8.5978L37.6167 9.00014H38.6333C38.8265 9.00014 39.0136 9.02214 39.1966 9.05615C39.4934 8.41214 39.65 7.71412 39.65 7.00011C39.65 4.24307 37.3696 2.00003 34.5667 2.00003H26.4333C23.6304 2.00003 21.35 4.24307 21.35 7.00011C21.35 7.71412 21.5066 8.41214 21.8024 9.05615C21.9864 9.02214 22.1735 9.00014 22.3667 9.00014H23.5318C23.8673 7.80613 24.7772 6.82211 26.0155 6.4161ZM27.2274 17.6523L27.5608 17.8713C28.1281 18.2433 28.4667 18.8653 28.4667 19.5353V20.5863L30.5 22.5864L32.5333 20.5863V19.5353C32.5333 18.8653 32.8719 18.2433 33.4392 17.8713L33.7727 17.6523C34.9062 16.9083 35.5833 15.6643 35.5833 14.3242V10.6182L35.4766 10.5652C34.7243 10.1952 33.8825 10.0002 33.0417 10.0002C31.8867 10.0002 30.7308 9.73116 29.6979 9.22415L28.0448 8.41113C27.6096 8.19713 27.1155 8.16313 26.6601 8.31313C25.9159 8.55814 25.4167 9.23815 25.4167 10.0082V14.3242C25.4167 15.6643 26.0938 16.9083 27.2274 17.6523Z" fill="#685ED6"/>
</svg>
